<svg width="20" height="20" viewBox="0 0 20 20" fill="none" xmlns="http://www.w3.org/2000/svg">
<path d="M18.5 14H6M6 14V1.5M6 14L1.5 18.5M1.5 6H14M14 6V18.5M14 6L18.5 1.5M19 13.3373V1.8C19 1.51997 19 1.37996 18.9455 1.273C18.8976 1.17892 18.8211 1.10243 18.727 1.0545C18.62 1 18.48 1 18.2 1H6.66274C6.41815 1 6.29586 1 6.18077 1.02763C6.07873 1.05213 5.98119 1.09253 5.89172 1.14736C5.7908 1.2092 5.70432 1.29568 5.53137 1.46863L1.46863 5.53137C1.29568 5.70432 1.2092 5.7908 1.14736 5.89172C1.09253 5.98119 1.05213 6.07873 1.02763 6.18077C1 6.29586 1 6.41815 1 6.66274V18.2C1 18.48 1 18.62 1.0545 18.727C1.10243 18.8211 1.17892 18.8976 1.273 18.9455C1.37996 19 1.51997 19 1.8 19H13.3373C13.5818 19 13.7041 19 13.8192 18.9724C13.9213 18.9479 14.0188 18.9075 14.1083 18.8526C14.2092 18.7908 14.2957 18.7043 14.4686 18.5314L18.5314 14.4686C18.7043 14.2957 18.7908 14.2092 18.8526 14.1083C18.9075 14.0188 18.9479 13.9213 18.9724 13.8192C19 13.7041 19 13.5818 19 13.3373Z" stroke="#FF5555" stroke-width="2" stroke-linecap="round" stroke-linejoin="round"/>
</svg>
