<svg width="22" height="22" viewBox="0 0 22 22" fill="none" xmlns="http://www.w3.org/2000/svg">
<path d="M11 1L9.6985 6.20599C9.44454 7.22185 9.31756 7.72978 9.05308 8.14309C8.81915 8.50868 8.50868 8.81915 8.14309 9.05308C7.72978 9.31756 7.22185 9.44454 6.20599 9.6985L1 11L6.20599 12.3015C7.22185 12.5555 7.72978 12.6824 8.14309 12.9469C8.50868 13.1808 8.81915 13.4913 9.05309 13.8569C9.31756 14.2702 9.44454 14.7782 9.6985 15.794L11 21L12.3015 15.794C12.5555 14.7782 12.6824 14.2702 12.9469 13.8569C13.1808 13.4913 13.4913 13.1808 13.8569 12.9469C14.2702 12.6824 14.7782 12.5555 15.794 12.3015L21 11L15.794 9.6985C14.7782 9.44454 14.2702 9.31756 13.8569 9.05308C13.4913 8.81915 13.1808 8.50868 12.9469 8.14309C12.6824 7.72978 12.5555 7.22185 12.3015 6.20599L11 1Z" stroke="#FF5555" stroke-width="2" stroke-linecap="round" stroke-linejoin="round"/>
</svg>
